<svg version="1.0" xmlns="http://www.w3.org/2000/svg"
 width="512.000000pt" height="512.000000pt" viewBox="0 0 512.000000 512.000000"
 preserveAspectRatio="xMidYMid meet">
<g transform="translate(0.000000,512.000000) scale(0.100000,-0.100000)"
fill="#ffffff" stroke="none">
<path d="M2270 5109 c-484 -55 -944 -249 -1327 -558 -120 -97 -328 -308 -411
-418 -296 -391 -467 -817 -522 -1302 -19 -161 -8 -544 20 -700 58 -329 183
-660 349 -923 34 -53 61 -102 61 -109 0 -39 -164 -384 -341 -719 -67 -126 -71
-137 -66 -183 12 -99 80 -161 177 -162 51 0 74 9 305 126 263 133 436 212 546
248 l66 22 89 -56 c262 -165 595 -289 929 -347 114 -20 165 -22 415 -22 248 0
301 2 410 21 269 47 492 119 725 234 248 122 448 263 654 464 404 394 653 876
748 1450 26 158 26 612 0 770 -91 551 -321 1012 -697 1399 -301 310 -633 518
-1039 652 -147 49 -368 97 -523 113 -113 13 -459 12 -568 0z m501 -359 c1124
-111 1989 -1064 1989 -2190 0 -471 -155 -933 -442 -1318 -92 -124 -315 -348
-438 -439 -277 -206 -575 -339 -904 -403 -552 -107 -1139 7 -1611 314 -123 80
-173 94 -277 77 -86 -14 -216 -57 -349 -116 l-96 -42 59 135 c81 186 111 293
106 385 -3 71 -4 74 -81 192 -515 789 -485 1778 76 2535 91 122 315 346 437
437 448 332 992 486 1531 433z"/>
<path d="M2035 3526 c-93 -22 -193 -62 -275 -113 -60 -37 -162 -133 -524 -492
-256 -255 -454 -460 -462 -478 -35 -81 -2 -185 70 -228 75 -44 104 -38 466 91
275 98 337 117 401 121 63 5 82 2 115 -15 22 -11 112 -89 200 -174 551 -528
578 -552 652 -591 207 -109 478 -83 714 68 55 35 182 156 505 478 238 237 440
446 448 463 33 71 8 179 -52 222 -38 27 -99 42 -137 35 -17 -3 -175 -58 -351
-121 -339 -121 -405 -136 -481 -112 -31 10 -118 91 -414 384 -389 385 -409
402 -537 447 -76 27 -252 35 -338 15z m246 -371 c19 -10 201 -183 404 -385
314 -312 379 -373 432 -399 90 -45 164 -62 277 -63 l100 -1 -145 -141 c-112
-110 -158 -148 -209 -173 -91 -44 -174 -59 -241 -43 -59 14 -18 -21 -503 444
-160 153 -314 293 -343 312 -28 18 -87 46 -130 61 -65 22 -96 27 -186 27
l-108 1 153 150 c94 92 173 161 204 178 108 57 221 69 295 32z"/>
</g>
</svg>
